<svg width="351" height="330" viewBox="0 0 351 330" fill="none" xmlns="http://www.w3.org/2000/svg">
<g opacity="0.2" filter="url(#filter0_d_1265_2175)">
<path d="M10.0001 184.638C10.0098 165.66 14.3003 146.87 22.6265 129.342C30.9527 111.813 43.1516 95.8897 58.5266 82.48C73.9016 69.0703 92.1517 58.4372 112.235 51.1876C132.318 43.9381 153.841 40.2141 175.575 40.2284C197.308 40.2427 218.827 43.9949 238.903 51.2708C258.979 58.5467 277.218 69.2038 292.579 82.6337C307.94 96.0636 320.123 112.003 328.431 129.542C336.739 147.082 341.01 165.877 341 184.855L175.5 184.747L10.0001 184.638Z" fill="url(#paint0_linear_1265_2175)"/>
</g>
<g clip-path="url(#clip0_1265_2175)">
<path d="M115.502 16.1439C116.311 14.1718 114.92 11.6625 112.396 10.5393C109.872 9.41608 107.171 10.1042 106.362 12.0764C105.553 14.0485 106.944 16.5578 109.468 17.681C111.992 18.8042 114.693 18.1161 115.502 16.1439Z" fill="#2F2E41"/>
<path d="M296.985 183.616L297.363 183.608C297.216 179.228 296.768 174.864 296.02 170.55C294.385 161.316 291.666 155.251 287.939 152.524L287.721 152.847C296.429 159.216 296.98 183.372 296.985 183.616Z" fill="#F1F1F1"/>
<path d="M292.258 183.521L292.636 183.514C292.628 183.077 292.391 172.795 288.506 169.953L288.289 170.275C292.017 173.003 292.256 183.417 292.258 183.521Z" fill="#F1F1F1"/>
<path d="M285.57 152.882C286.614 152.882 287.461 152 287.461 150.913C287.461 149.825 286.614 148.943 285.57 148.943C284.526 148.943 283.679 149.825 283.679 150.913C283.679 152 284.526 152.882 285.57 152.882Z" fill="#F1F1F1"/>
<path d="M286.506 169.823C287.551 169.823 288.397 168.941 288.397 167.853C288.397 166.765 287.551 165.883 286.506 165.883C285.462 165.883 284.616 166.765 284.616 167.853C284.616 168.941 285.462 169.823 286.506 169.823Z" fill="#F1F1F1"/>
<path d="M293.139 154.063C292.949 155.583 293.146 157.127 293.71 158.543C294.694 157.397 295.339 155.979 295.567 154.459C295.796 152.94 295.597 151.384 294.997 149.98C294.045 151.148 293.404 152.556 293.139 154.063Z" fill="#F1F1F1"/>
<path d="M286.959 159.806C288.362 160.265 289.856 160.332 291.292 160.001C290.38 158.792 289.152 157.883 287.756 157.384C286.36 156.885 284.855 156.817 283.423 157.189C284.361 158.369 285.58 159.271 286.959 159.806Z" fill="#F1F1F1"/>
<path d="M286.889 174.809C287.872 175.13 288.92 175.177 289.926 174.945C289.287 174.097 288.426 173.46 287.448 173.111C286.469 172.761 285.414 172.714 284.41 172.974C285.068 173.801 285.923 174.434 286.889 174.809Z" fill="#F1F1F1"/>
<path d="M135.954 183.616L135.406 183.604C135.618 177.246 136.269 170.913 137.354 164.652C139.727 151.248 143.674 142.445 149.084 138.487L149.399 138.955C136.761 148.2 135.961 183.262 135.954 183.616Z" fill="#F1F1F1"/>
<path d="M142.815 183.479L142.266 183.468C142.278 182.834 142.621 167.91 148.261 163.785L148.576 164.253C143.164 168.211 142.818 183.327 142.815 183.479Z" fill="#F1F1F1"/>
<path d="M152.522 139.007C154.038 139.007 155.266 137.727 155.266 136.148C155.266 134.569 154.038 133.289 152.522 133.289C151.006 133.289 149.778 134.569 149.778 136.148C149.778 137.727 151.006 139.007 152.522 139.007Z" fill="#F1F1F1"/>
<path d="M151.163 163.596C152.679 163.596 153.907 162.316 153.907 160.737C153.907 159.158 152.679 157.878 151.163 157.878C149.647 157.878 148.419 159.158 148.419 160.737C148.419 162.316 149.647 163.596 151.163 163.596Z" fill="#F1F1F1"/>
<path d="M141.536 140.721C141.811 142.927 141.526 145.169 140.708 147.223C139.279 145.56 138.343 143.501 138.011 141.296C137.68 139.091 137.968 136.833 138.84 134.794C140.221 136.49 141.151 138.534 141.536 140.721Z" fill="#F1F1F1"/>
<path d="M150.507 149.057C148.47 149.723 146.301 149.821 144.217 149.34C145.54 147.584 147.323 146.265 149.349 145.541C151.376 144.817 153.56 144.718 155.639 145.258C154.277 146.971 152.507 148.281 150.507 149.057Z" fill="#F1F1F1"/>
<path d="M150.608 170.832C149.181 171.299 147.66 171.368 146.199 171.031C147.127 169.8 148.376 168.876 149.797 168.368C151.217 167.86 152.748 167.792 154.205 168.17C153.251 169.37 152.01 170.288 150.608 170.832Z" fill="#F1F1F1"/>
<path d="M93.5531 61.8572L92.2326 53.4408L88.5041 52.4697C88.5041 52.4697 85.5449 51.5201 84.8532 57.7299C84.1616 63.9398 84.6978 75.5339 84.6978 75.5339L76.5116 102.541C75.883 102.852 75.3538 103.346 74.9874 103.962C74.621 104.579 74.4329 105.292 74.4455 106.017C74.4582 106.742 74.6712 107.448 75.0589 108.05C75.4466 108.652 75.9927 109.125 76.6317 109.412C77.2707 109.699 77.9757 109.788 78.6621 109.669C79.3486 109.549 79.9875 109.226 80.5023 108.739C81.0171 108.251 81.386 107.619 81.5649 106.918C81.7438 106.217 81.7251 105.478 81.5109 104.788L92.155 79.4184L93.5531 61.8572Z" fill="#FFB7B7"/>
<path d="M116.226 55.2339L114.269 46.9532L117.332 44.5349C117.332 44.5349 119.696 42.4511 122.672 47.8793C125.649 53.3075 129.525 64.1899 129.525 64.1899L147.232 85.6796C147.927 85.7087 148.6 85.946 149.169 86.363C149.739 86.7801 150.181 87.3592 150.442 88.0311C150.704 88.703 150.774 89.4392 150.644 90.1516C150.515 90.864 150.191 91.5223 149.711 92.0478C149.232 92.5733 148.617 92.9437 147.941 93.1147C147.264 93.2857 146.555 93.2499 145.898 93.0118C145.24 92.7737 144.663 92.3432 144.234 91.772C143.805 91.2007 143.544 90.5129 143.481 89.7908L124.131 70.8129L116.226 55.2339Z" fill="#FFB7B7"/>
<path d="M131.528 179.206L135.969 179.205L138.081 161.362L131.527 161.362L131.528 179.206Z" fill="#FFB7B7"/>
<path d="M75.7517 179.206L80.1919 179.205L82.3045 161.362L75.7507 161.362L75.7517 179.206Z" fill="#FFB7B7"/>
<path d="M102.985 39.3751C109.617 39.3751 114.994 33.7734 114.994 26.8633C114.994 19.9532 109.617 14.3514 102.985 14.3514C96.352 14.3514 90.9751 19.9532 90.9751 26.8633C90.9751 33.7734 96.352 39.3751 102.985 39.3751Z" fill="#2F2E41"/>
<path d="M93.6106 20.1172C95.5513 18.0953 95.9446 15.227 94.4891 13.7106C93.0336 12.1942 90.2804 12.604 88.3397 14.6258C86.3989 16.6477 86.0056 19.516 87.4612 21.0324C88.9167 22.5488 91.6699 22.1391 93.6106 20.1172Z" fill="#2F2E41"/>
<path d="M112.309 34.9435C115.009 29.7977 113.194 23.3458 108.255 20.5328C103.315 17.7198 97.1223 19.611 94.4222 24.7568C91.7222 29.9027 93.5374 36.3546 98.4767 39.1676C103.416 41.9805 109.609 40.0894 112.309 34.9435Z" fill="#FFB7B7"/>
<path d="M92.6558 23.171C94.9849 24.8434 97.7494 25.7335 100.578 25.7217C99.5691 26.4506 98.4203 26.943 97.2111 27.1649C100.972 28.0054 104.859 28.0281 108.629 27.2317C109.467 27.0917 110.275 26.8024 111.019 26.3764C111.39 26.1608 111.713 25.8664 111.967 25.5122C112.221 25.158 112.401 24.7521 112.495 24.3208C112.745 22.8299 111.63 21.4753 110.471 20.5625C108.697 19.1861 106.651 18.2378 104.482 17.7862C102.313 17.3346 100.074 17.391 97.9284 17.9513C96.5273 18.3286 95.1237 18.9661 94.2136 20.1383C93.3036 21.3106 93.034 23.1178 93.9011 24.3249L92.6558 23.171Z" fill="#2F2E41"/>
<path d="M267.896 121.582H197.857C197.298 121.581 196.762 121.349 196.366 120.937C195.971 120.525 195.748 119.967 195.748 119.384V94.7681C195.748 94.1855 195.971 93.6268 196.366 93.2148C196.762 92.8028 197.298 92.571 197.857 92.5703H267.896C268.456 92.571 268.992 92.8028 269.387 93.2148C269.783 93.6268 270.005 94.1855 270.006 94.7681V119.384C270.005 119.967 269.783 120.525 269.387 120.937C268.992 121.349 268.456 121.581 267.896 121.582Z" fill="#E5E5E5"/>
<path d="M225.282 99.1638H206.718V101.362H225.282V99.1638Z" fill="white"/>
<path d="M249.754 101.801C250.453 101.801 251.02 101.211 251.02 100.483C251.02 99.7542 250.453 99.1638 249.754 99.1638C249.055 99.1638 248.488 99.7542 248.488 100.483C248.488 101.211 249.055 101.801 249.754 101.801Z" fill="#2F8CD8"/>
<path d="M253.973 101.801C254.672 101.801 255.239 101.211 255.239 100.483C255.239 99.7542 254.672 99.1638 253.973 99.1638C253.274 99.1638 252.707 99.7542 252.707 100.483C252.707 101.211 253.274 101.801 253.973 101.801Z" fill="#2F8CD8"/>
<path d="M258.192 101.801C258.891 101.801 259.458 101.211 259.458 100.483C259.458 99.7542 258.891 99.1638 258.192 99.1638C257.493 99.1638 256.926 99.7542 256.926 100.483C256.926 101.211 257.493 101.801 258.192 101.801Z" fill="#2F8CD8"/>
<path d="M267.896 152.791H197.857C197.298 152.79 196.762 152.558 196.366 152.146C195.971 151.734 195.748 151.176 195.748 150.593V125.977C195.748 125.395 195.971 124.836 196.366 124.424C196.762 124.012 197.298 123.78 197.857 123.78H267.896C268.456 123.78 268.992 124.012 269.387 124.424C269.783 124.836 270.005 125.395 270.006 125.977V150.593C270.005 151.176 269.783 151.734 269.387 152.146C268.992 152.558 268.456 152.79 267.896 152.791Z" fill="#E5E5E5"/>
<path d="M225.282 130.373H206.718V132.571H225.282V130.373Z" fill="white"/>
<path d="M249.754 133.01C250.453 133.01 251.02 132.42 251.02 131.692C251.02 130.963 250.453 130.373 249.754 130.373C249.055 130.373 248.488 130.963 248.488 131.692C248.488 132.42 249.055 133.01 249.754 133.01Z" fill="#2F8CD8"/>
<path d="M253.973 133.01C254.672 133.01 255.239 132.42 255.239 131.692C255.239 130.963 254.672 130.373 253.973 130.373C253.274 130.373 252.707 130.963 252.707 131.692C252.707 132.42 253.274 133.01 253.973 133.01Z" fill="#2F8CD8"/>
<path d="M258.192 133.01C258.891 133.01 259.458 132.42 259.458 131.692C259.458 130.963 258.891 130.373 258.192 130.373C257.493 130.373 256.926 130.963 256.926 131.692C256.926 132.42 257.493 133.01 258.192 133.01Z" fill="#2F8CD8"/>
<path d="M267.896 184H197.857C197.298 183.999 196.762 183.768 196.366 183.356C195.971 182.944 195.748 182.385 195.748 181.802V157.186C195.748 156.604 195.971 156.045 196.366 155.633C196.762 155.221 197.298 154.989 197.857 154.989H267.896C268.456 154.989 268.992 155.221 269.387 155.633C269.783 156.045 270.005 156.604 270.006 157.186V181.802C270.005 182.385 269.783 182.944 269.387 183.356C268.992 183.768 268.456 183.999 267.896 184Z" fill="#E5E5E5"/>
<path d="M225.282 161.582H206.718V163.78H225.282V161.582Z" fill="white"/>
<path d="M249.754 164.22C250.453 164.22 251.02 163.629 251.02 162.901C251.02 162.173 250.453 161.582 249.754 161.582C249.055 161.582 248.488 162.173 248.488 162.901C248.488 163.629 249.055 164.22 249.754 164.22Z" fill="#2F8CD8"/>
<path d="M253.973 164.22C254.672 164.22 255.239 163.629 255.239 162.901C255.239 162.173 254.672 161.582 253.973 161.582C253.274 161.582 252.707 162.173 252.707 162.901C252.707 163.629 253.274 164.22 253.973 164.22Z" fill="#2F8CD8"/>
<path d="M258.192 164.22C258.891 164.22 259.458 163.629 259.458 162.901C259.458 162.173 258.891 161.582 258.192 161.582C257.493 161.582 256.926 162.173 256.926 162.901C256.926 163.629 257.493 164.22 258.192 164.22Z" fill="#2F8CD8"/>
<path d="M183.85 130.924C182.516 130.919 181.188 130.74 179.897 130.391L179.642 130.317L179.406 130.194C170.871 125.736 163.67 119.847 158.004 112.691C153.313 106.733 149.657 99.9678 147.198 92.7002C144.257 83.9991 142.843 74.8181 143.021 65.5954C143.025 65.4018 143.028 65.2523 143.028 65.1493C143.028 60.6661 145.417 56.7324 149.113 55.1277C151.943 53.8995 177.631 42.9071 179.487 42.1128C182.982 40.2882 186.711 41.8112 187.308 42.0775C188.647 42.6476 212.394 52.7667 217.526 55.3125C222.815 57.9363 224.226 62.6499 224.226 65.0214C224.226 75.7577 222.441 85.7917 218.921 94.8447C216.078 102.172 212.049 108.937 207.009 114.845C197.285 126.245 187.559 130.287 187.465 130.322C186.302 130.739 185.079 130.942 183.85 130.924ZM181.563 125.021C182.406 125.218 184.347 125.513 185.613 125.032C187.22 124.421 195.361 120.023 202.969 111.104C213.48 98.7811 218.813 83.2899 218.821 65.061C218.802 64.6917 218.55 62.0576 215.202 60.3967C210.17 57.9001 185.486 47.3851 185.238 47.2791L185.169 47.2489C184.652 47.0231 183.006 46.5474 181.871 47.167L181.644 47.2773C181.369 47.395 154.1 59.0631 151.192 60.3256C149.158 61.2086 148.433 63.3964 148.433 65.1493C148.433 65.2774 148.43 65.4638 148.425 65.7046C148.193 78.1776 150.963 108.87 181.563 125.021Z" fill="#3F3D56"/>
<path d="M180.617 44.6729C180.617 44.6729 153.101 56.4469 150.153 57.7266C147.205 59.0064 145.73 62.0779 145.73 65.1494C145.73 68.2208 143.519 108.299 180.617 127.677C180.617 127.677 183.984 128.648 186.539 127.677C189.093 126.707 221.523 110.325 221.523 65.0214C221.523 65.0214 221.523 60.4142 216.364 57.8546C211.205 55.2951 186.26 44.6729 186.26 44.6729C186.26 44.6729 183.197 43.2652 180.617 44.6729Z" fill="#2F8CD8"/>
<path opacity="0.2" d="M183.565 53.8873V116.697C183.565 116.697 211.327 102.775 211.082 66.1732L183.565 53.8873Z" fill="black"/>
<path d="M181.95 99.5231C181.156 99.5246 180.382 99.2613 179.746 98.7729L179.706 98.7427L171.403 92.2311C171.005 91.9342 170.67 91.5588 170.417 91.1273C170.163 90.6957 169.996 90.2166 169.926 89.718C169.856 89.2195 169.884 88.7117 170.008 88.2243C170.132 87.7369 170.35 87.2799 170.649 86.8801C170.948 86.4802 171.322 86.1457 171.749 85.896C172.176 85.6464 172.648 85.4867 173.136 85.4264C173.624 85.366 174.119 85.4062 174.592 85.5447C175.065 85.6831 175.506 85.9169 175.89 86.2324L181.268 90.4566L193.978 73.479C194.573 72.6839 195.453 72.1637 196.423 72.0325C197.393 71.9014 198.374 72.1701 199.15 72.7796L199.071 72.8897L199.152 72.7814C199.928 73.3919 200.435 74.2925 200.563 75.2856C200.691 76.2788 200.429 77.2834 199.835 78.079L184.885 98.0488C184.539 98.509 184.095 98.8814 183.586 99.1371C183.077 99.3929 182.517 99.525 181.95 99.5234L181.95 99.5231Z" fill="white"/>
<path d="M98.2575 43.6586L88.1693 52.2418L96.9838 74.1378L97.152 77.6412C97.152 77.6412 88.0017 86.4306 82.34 110.984C76.6784 135.537 65.2434 168.162 65.2434 168.162L88.1195 173.992L104.025 118.451L124.3 162.025L127.185 174.913L144.868 169.798L138.043 135.212L121.305 81.5251L122.679 66.6936C122.679 66.6936 125.742 59.2906 120.421 51.4529L118.752 44.0883L110.112 42.554L98.2575 43.6586Z" fill="#2F2E41"/>
</g>
<defs>
<filter id="filter0_d_1265_2175" x="0" y="34.2284" width="351" height="164.627" filterUnits="userSpaceOnUse" color-interpolation-filters="sRGB">
<feFlood flood-opacity="0" result="BackgroundImageFix"/>
<feColorMatrix in="SourceAlpha" type="matrix" values="0 0 0 0 0 0 0 0 0 0 0 0 0 0 0 0 0 0 127 0" result="hardAlpha"/>
<feOffset dy="4"/>
<feGaussianBlur stdDeviation="5"/>
<feComposite in2="hardAlpha" operator="out"/>
<feColorMatrix type="matrix" values="0 0 0 0 0 0 0 0 0 0 0 0 0 0 0 0 0 0 0.25 0"/>
<feBlend mode="normal" in2="BackgroundImageFix" result="effect1_dropShadow_1265_2175"/>
<feBlend mode="normal" in="SourceGraphic" in2="effect1_dropShadow_1265_2175" result="shape"/>
</filter>
<linearGradient id="paint0_linear_1265_2175" x1="175.425" y1="329.265" x2="175.615" y2="40.2284" gradientUnits="userSpaceOnUse">
<stop stop-color="#18C776"/>
<stop offset="1" stop-color="#2F8CD8"/>
</linearGradient>
<clipPath id="clip0_1265_2175">
<rect width="255" height="174" fill="white" transform="translate(48.8883)"/>
</clipPath>
</defs>
</svg>
