<svg width="393" height="454" viewBox="0 0 393 454" fill="none" xmlns="http://www.w3.org/2000/svg">
<g filter="url(#filter0_f_808_8512)">
<rect x="33" y="64" width="326" height="326" rx="163" fill="url(#paint0_linear_808_8512)"/>
</g>
<rect x="68.5" y="99.5" width="255" height="255" rx="127.5" stroke="#0052D9" stroke-opacity="0.1"/>
<rect x="84.5" y="115.5" width="223" height="223" rx="111.5" stroke="#006C49" stroke-opacity="0.2"/>
<foreignObject x="76" y="107" width="240" height="240"><div xmlns="http://www.w3.org/1999/xhtml" style="backdrop-filter:blur(12px);clip-path:url(#bgblur_0_808_8512_clip_path);height:100%;width:100%"></div></foreignObject><g data-figma-bg-blur-radius="24">
<rect x="100" y="131" width="192" height="192" rx="24" fill="white" fill-opacity="0.7"/>
<rect x="100.5" y="131.5" width="191" height="191" rx="23.5" stroke="white" stroke-opacity="0.4"/>
<g filter="url(#filter2_d_808_8512)">
<rect x="100" y="131" width="192" height="192" rx="24" fill="white" fill-opacity="0.01" shape-rendering="crispEdges"/>
</g>
<rect x="156" y="172" width="80" height="88" rx="40" fill="url(#paint1_linear_808_8512)"/>
<g filter="url(#filter3_dd_808_8512)">
<rect x="156" y="172" width="80" height="88" rx="40" fill="white" fill-opacity="0.01" shape-rendering="crispEdges"/>
</g>
<path d="M193.9 223.1L205.2 211.8L202.35 208.95L193.9 217.4L189.7 213.2L186.85 216.05L193.9 223.1ZM196 236C191.367 234.833 187.542 232.175 184.525 228.025C181.508 223.875 180 219.267 180 214.2V202L196 196L212 202V214.2C212 219.267 210.492 223.875 207.475 228.025C204.458 232.175 200.633 234.833 196 236Z" fill="white"/>
<rect x="183" y="276" width="6" height="6" rx="3" fill="#4EDEA3"/>
<rect x="193" y="276" width="6" height="6" rx="3" fill="#4EDEA3" fill-opacity="0.4"/>
<rect x="203" y="276" width="6" height="6" rx="3" fill="#4EDEA3" fill-opacity="0.2"/>
</g>
<foreignObject x="232.02" y="59" width="147.98" height="81"><div xmlns="http://www.w3.org/1999/xhtml" style="backdrop-filter:blur(12px);clip-path:url(#bgblur_1_808_8512_clip_path);height:100%;width:100%"></div></foreignObject><g filter="url(#filter4_d_808_8512)" data-figma-bg-blur-radius="24">
<rect x="256.02" y="83" width="99.98" height="33" rx="16.5" fill="white" fill-opacity="0.7" shape-rendering="crispEdges"/>
<rect x="256.52" y="83.5" width="98.98" height="32" rx="16" stroke="white" stroke-opacity="0.5" shape-rendering="crispEdges"/>
<rect x="273.02" y="95.5" width="8" height="8" rx="4" fill="#4EDEA3"/>
<path d="M289.258 103L291.747 95.7246H293.696L296.248 103H294.591L293.425 99.4905C293.284 99.0372 293.141 98.5409 292.997 98.0015C292.853 97.4621 292.701 96.8744 292.542 96.2383H292.865C292.711 96.8774 292.566 97.4681 292.431 98.0105C292.296 98.5529 292.162 99.0462 292.028 99.4905L290.904 103H289.258ZM290.813 101.312V100.142H294.693V101.312H290.813ZM298.143 103V95.7246H303.015V96.9616H299.635V98.7176H302.757V99.9334H299.635V101.763H303.024V103H298.143ZM307.887 103.106C307.305 103.106 306.798 103.016 306.366 102.837C305.935 102.659 305.599 102.394 305.358 102.043C305.117 101.692 304.989 101.258 304.974 100.742H306.424C306.443 100.988 306.516 101.192 306.643 101.357C306.77 101.521 306.94 101.644 307.152 101.726C307.364 101.808 307.604 101.849 307.871 101.849C308.136 101.849 308.368 101.81 308.566 101.732C308.764 101.655 308.918 101.546 309.028 101.406C309.138 101.266 309.193 101.105 309.193 100.921C309.193 100.754 309.143 100.614 309.045 100.502C308.946 100.389 308.804 100.293 308.618 100.213C308.431 100.132 308.205 100.061 307.939 99.998L307.14 99.799C306.524 99.6488 306.041 99.4134 305.692 99.0927C305.343 98.7721 305.168 98.3471 305.168 97.8179C305.168 97.3796 305.287 96.9961 305.524 96.6674C305.761 96.3387 306.086 96.0831 306.497 95.9006C306.909 95.7182 307.379 95.627 307.905 95.627C308.444 95.627 308.913 95.7191 309.313 95.9033C309.714 96.0875 310.026 96.3428 310.25 96.6693C310.473 96.9958 310.589 97.372 310.597 97.7979H309.156C309.128 97.5063 309.003 97.2804 308.781 97.1201C308.56 96.9599 308.263 96.8797 307.892 96.8797C307.639 96.8797 307.423 96.916 307.244 96.9887C307.066 97.0614 306.93 97.1613 306.836 97.2886C306.743 97.4159 306.696 97.561 306.696 97.7238C306.696 97.9021 306.751 98.0502 306.859 98.1679C306.968 98.2856 307.111 98.3814 307.289 98.4554C307.467 98.5293 307.658 98.5907 307.862 98.6395L308.518 98.8002C308.824 98.8698 309.109 98.9634 309.373 99.0809C309.637 99.1985 309.868 99.3426 310.067 99.5133C310.265 99.684 310.419 99.8861 310.529 100.12C310.639 100.353 310.694 100.623 310.694 100.928C310.694 101.369 310.583 101.753 310.361 102.08C310.138 102.407 309.818 102.66 309.399 102.838C308.981 103.017 308.476 103.106 307.887 103.106ZM316.102 98.7822V99.9514H312.793V98.7822H316.102ZM318.175 103V101.928L320.753 99.5086C320.974 99.293 321.161 99.0986 321.313 98.9256C321.466 98.7526 321.582 98.5823 321.662 98.4146C321.742 98.2469 321.782 98.0649 321.782 97.8684C321.782 97.6514 321.732 97.4646 321.634 97.3081C321.535 97.1515 321.402 97.0311 321.233 96.9468C321.064 96.8624 320.87 96.8202 320.652 96.8202C320.426 96.8202 320.229 96.8658 320.061 96.9571C319.892 97.0483 319.762 97.1785 319.67 97.3476C319.578 97.5168 319.532 97.7196 319.532 97.9562H318.11C318.11 97.4825 318.218 97.0715 318.433 96.7231C318.648 96.3748 318.948 96.105 319.332 95.9138C319.716 95.7226 320.16 95.627 320.663 95.627C321.177 95.627 321.625 95.7186 322.009 95.9019C322.393 96.0852 322.692 96.3382 322.905 96.6609C323.118 96.9836 323.225 97.3547 323.225 97.7742C323.225 98.0467 323.172 98.3145 323.066 98.5775C322.96 98.8406 322.772 99.1353 322.501 99.4616C322.23 99.7879 321.845 100.18 321.347 100.637L320.245 101.723V101.776H323.323V103H318.175ZM327.938 103.098C327.439 103.098 326.995 103.006 326.606 102.822C326.216 102.639 325.908 102.386 325.682 102.064C325.456 101.742 325.337 101.373 325.326 100.958H326.778C326.787 101.147 326.844 101.313 326.95 101.458C327.056 101.603 327.195 101.715 327.368 101.795C327.541 101.876 327.731 101.916 327.938 101.916C328.182 101.916 328.397 101.861 328.585 101.751C328.772 101.642 328.919 101.49 329.025 101.295C329.132 101.099 329.185 100.874 329.185 100.619C329.185 100.359 329.13 100.13 329.021 99.931C328.911 99.732 328.761 99.5766 328.571 99.4649C328.381 99.3531 328.161 99.2973 327.911 99.2973C327.693 99.2973 327.484 99.341 327.284 99.4284C327.084 99.5159 326.928 99.6325 326.816 99.7783L325.478 99.5444L325.828 95.7246H330.231V96.954H327.063L326.875 98.7959H326.914C327.044 98.6195 327.237 98.4742 327.493 98.3602C327.749 98.2462 328.034 98.1892 328.348 98.1892C328.675 98.1892 328.977 98.2476 329.255 98.3645C329.534 98.4815 329.775 98.6472 329.981 98.8616C330.187 99.0761 330.347 99.3292 330.46 99.621C330.574 99.9129 330.631 100.233 330.631 100.581C330.631 101.069 330.518 101.503 330.291 101.881C330.064 102.26 329.749 102.557 329.345 102.773C328.941 102.99 328.472 103.098 327.938 103.098ZM335.429 103.098C335.061 103.098 334.705 103.036 334.36 102.913C334.015 102.79 333.707 102.591 333.435 102.314C333.163 102.038 332.947 101.672 332.788 101.217C332.629 100.761 332.549 100.2 332.549 99.5351C332.549 98.922 332.617 98.3742 332.754 97.8919C332.891 97.4095 333.089 96.9997 333.346 96.6625C333.603 96.3252 333.913 96.0683 334.274 95.8917C334.635 95.7152 335.039 95.627 335.486 95.627C335.963 95.627 336.386 95.7202 336.754 95.9067C337.122 96.0932 337.419 96.3458 337.644 96.6645C337.869 96.9832 338.006 97.3427 338.054 97.7429H336.587C336.526 97.4851 336.399 97.2821 336.206 97.1338C336.012 96.9855 335.772 96.9114 335.486 96.9114C335.166 96.9114 334.896 97.0055 334.677 97.1937C334.458 97.3819 334.292 97.6498 334.181 97.9974C334.069 98.3451 334.013 98.7583 334.013 99.2373H334.061C334.172 99.0249 334.32 98.8424 334.504 98.6896C334.688 98.5368 334.899 98.42 335.136 98.3391C335.374 98.2582 335.625 98.2178 335.888 98.2178C336.318 98.2178 336.702 98.3186 337.039 98.5201C337.376 98.7217 337.642 98.9995 337.837 99.3537C338.031 99.7079 338.128 100.113 338.128 100.57C338.128 101.059 338.015 101.494 337.789 101.875C337.562 102.256 337.247 102.555 336.842 102.772C336.437 102.989 335.966 103.098 335.429 103.098ZM335.419 101.916C335.661 101.916 335.876 101.858 336.066 101.742C336.256 101.626 336.405 101.47 336.516 101.272C336.626 101.075 336.681 100.853 336.681 100.607C336.681 100.363 336.627 100.143 336.519 99.9474C336.411 99.7515 336.263 99.5964 336.075 99.4822C335.887 99.368 335.672 99.3109 335.43 99.3109C335.251 99.3109 335.084 99.3448 334.931 99.4126C334.777 99.4804 334.643 99.5741 334.528 99.6939C334.413 99.8136 334.323 99.9518 334.259 100.109C334.195 100.265 334.163 100.433 334.163 100.611C334.163 100.85 334.218 101.068 334.327 101.266C334.436 101.463 334.585 101.621 334.776 101.739C334.966 101.857 335.18 101.916 335.419 101.916Z" fill="#404752"/>
</g>
<foreignObject x="-4" y="250" width="165.119" height="81"><div xmlns="http://www.w3.org/1999/xhtml" style="backdrop-filter:blur(12px);clip-path:url(#bgblur_2_808_8512_clip_path);height:100%;width:100%"></div></foreignObject><g filter="url(#filter5_d_808_8512)" data-figma-bg-blur-radius="24">
<rect x="20" y="274" width="117.119" height="33" rx="16.5" fill="white" fill-opacity="0.7" shape-rendering="crispEdges"/>
<rect x="20.5" y="274.5" width="116.119" height="32" rx="16" stroke="white" stroke-opacity="0.5" shape-rendering="crispEdges"/>
<path d="M42.2471 286.106C43.2776 286.106 44.2499 286.327 45.1637 286.77C46.0776 287.212 46.8408 287.851 47.4533 288.688C47.5214 288.775 47.5433 288.853 47.519 288.921C47.4947 288.989 47.4533 289.047 47.395 289.096C47.3367 289.144 47.2686 289.166 47.1908 289.161C47.1131 289.157 47.045 289.115 46.9867 289.038C46.4519 288.279 45.7641 287.698 44.9231 287.295C44.0822 286.891 43.1901 286.69 42.2471 286.69C41.304 286.69 40.4193 286.891 39.5929 287.295C38.7665 287.698 38.0811 288.279 37.5367 289.038C37.4783 289.125 37.4103 289.174 37.3325 289.183C37.2547 289.193 37.1867 289.174 37.1283 289.125C37.0603 289.076 37.019 289.016 37.0044 288.943C36.9898 288.87 37.0117 288.794 37.07 288.717C37.6728 287.89 38.4287 287.249 39.3377 286.792C40.2467 286.335 41.2165 286.106 42.2471 286.106ZM42.2471 287.477C43.5596 287.477 44.6874 287.915 45.6304 288.79C46.5735 289.665 47.045 290.749 47.045 292.042C47.045 292.528 46.8724 292.934 46.5273 293.259C46.1822 293.585 45.7617 293.748 45.2658 293.748C44.77 293.748 44.3447 293.585 43.9898 293.259C43.6349 292.934 43.4575 292.528 43.4575 292.042C43.4575 291.721 43.3384 291.451 43.1002 291.232C42.862 291.014 42.5776 290.904 42.2471 290.904C41.9165 290.904 41.6322 291.014 41.394 291.232C41.1558 291.451 41.0367 291.721 41.0367 292.042C41.0367 292.985 41.3162 293.772 41.8752 294.404C42.4342 295.036 43.1561 295.479 44.0408 295.731C44.1283 295.76 44.1867 295.809 44.2158 295.877C44.245 295.945 44.2499 296.018 44.2304 296.096C44.211 296.164 44.1721 296.222 44.1137 296.271C44.0554 296.319 43.9825 296.334 43.895 296.315C42.8839 296.062 42.0575 295.559 41.4158 294.805C40.7742 294.052 40.4533 293.131 40.4533 292.042C40.4533 291.556 40.6283 291.147 40.9783 290.817C41.3283 290.486 41.7512 290.321 42.2471 290.321C42.7429 290.321 43.1658 290.486 43.5158 290.817C43.8658 291.147 44.0408 291.556 44.0408 292.042C44.0408 292.363 44.1624 292.632 44.4054 292.851C44.6485 293.07 44.9353 293.179 45.2658 293.179C45.5964 293.179 45.8783 293.07 46.1117 292.851C46.345 292.632 46.4617 292.363 46.4617 292.042C46.4617 290.914 46.0485 289.966 45.2221 289.198C44.3957 288.43 43.4089 288.046 42.2617 288.046C41.1144 288.046 40.1276 288.43 39.3012 289.198C38.4749 289.966 38.0617 290.909 38.0617 292.027C38.0617 292.26 38.0835 292.552 38.1273 292.902C38.171 293.252 38.2756 293.66 38.4408 294.127C38.47 294.215 38.4676 294.292 38.4335 294.36C38.3995 294.429 38.3436 294.477 38.2658 294.506C38.1881 294.535 38.1127 294.533 38.0398 294.499C37.9669 294.465 37.9158 294.409 37.8867 294.331C37.7408 293.952 37.6363 293.575 37.5731 293.201C37.5099 292.827 37.4783 292.44 37.4783 292.042C37.4783 290.749 37.9474 289.665 38.8856 288.79C39.8238 287.915 40.9443 287.477 42.2471 287.477ZM42.2471 284.677C42.8693 284.677 43.4769 284.752 44.07 284.903C44.6631 285.054 45.2367 285.27 45.7908 285.552C45.8783 285.601 45.9294 285.659 45.944 285.727C45.9585 285.795 45.9512 285.863 45.9221 285.931C45.8929 285.999 45.8443 286.053 45.7762 286.092C45.7082 286.131 45.6256 286.126 45.5283 286.077C45.0131 285.815 44.4808 285.613 43.9315 285.472C43.3822 285.331 42.8207 285.26 42.2471 285.26C41.6832 285.26 41.129 285.326 40.5846 285.457C40.0401 285.589 39.52 285.795 39.0242 286.077C38.9464 286.126 38.8686 286.138 38.7908 286.114C38.7131 286.089 38.6547 286.038 38.6158 285.96C38.5769 285.883 38.5672 285.812 38.5867 285.749C38.6061 285.686 38.6547 285.63 38.7325 285.581C39.2769 285.29 39.8457 285.066 40.4388 284.91C41.0318 284.755 41.6346 284.677 42.2471 284.677ZM42.2471 288.892C43.1512 288.892 43.929 289.196 44.5804 289.803C45.2318 290.411 45.5575 291.157 45.5575 292.042C45.5575 292.129 45.5308 292.2 45.4773 292.253C45.4238 292.307 45.3533 292.333 45.2658 292.333C45.1881 292.333 45.12 292.307 45.0617 292.253C45.0033 292.2 44.9742 292.129 44.9742 292.042C44.9742 291.313 44.7044 290.702 44.1648 290.211C43.6252 289.721 42.986 289.475 42.2471 289.475C41.5082 289.475 40.8738 289.721 40.344 290.211C39.8141 290.702 39.5492 291.313 39.5492 292.042C39.5492 292.829 39.6853 293.498 39.9575 294.047C40.2297 294.596 40.6283 295.148 41.1533 295.702C41.2117 295.76 41.2408 295.829 41.2408 295.906C41.2408 295.984 41.2117 296.052 41.1533 296.11C41.095 296.169 41.0269 296.198 40.9492 296.198C40.8714 296.198 40.8033 296.169 40.745 296.11C40.1714 295.508 39.7315 294.893 39.4252 294.266C39.119 293.639 38.9658 292.897 38.9658 292.042C38.9658 291.157 39.2867 290.411 39.9283 289.803C40.57 289.196 41.3429 288.892 42.2471 288.892ZM42.2325 291.75C42.32 291.75 42.3905 291.779 42.444 291.838C42.4974 291.896 42.5242 291.964 42.5242 292.042C42.5242 292.771 42.7867 293.369 43.3117 293.835C43.8367 294.302 44.4492 294.535 45.1492 294.535C45.2075 294.535 45.2901 294.531 45.3971 294.521C45.504 294.511 45.6158 294.497 45.7325 294.477C45.82 294.458 45.8953 294.47 45.9585 294.514C46.0217 294.557 46.0631 294.623 46.0825 294.71C46.1019 294.788 46.0874 294.856 46.0387 294.915C45.9901 294.973 45.9269 295.012 45.8492 295.031C45.6742 295.08 45.521 295.107 45.3898 295.111C45.2585 295.116 45.1783 295.119 45.1492 295.119C44.2839 295.119 43.5328 294.827 42.896 294.244C42.2592 293.66 41.9408 292.926 41.9408 292.042C41.9408 291.964 41.9676 291.896 42.021 291.838C42.0745 291.779 42.145 291.75 42.2325 291.75Z" fill="#006C49"/>
<path d="M56.186 294V286.725H59.0752C59.6077 286.725 60.0518 286.805 60.4077 286.966C60.7636 287.127 61.0305 287.348 61.2083 287.629C61.3861 287.91 61.4751 288.231 61.4751 288.593C61.4751 288.881 61.418 289.131 61.3038 289.344C61.1896 289.557 61.0342 289.732 60.8377 289.867C60.6413 290.002 60.4179 290.098 60.1676 290.155V290.229C60.4412 290.24 60.699 290.318 60.9411 290.462C61.1831 290.606 61.3798 290.808 61.5312 291.067C61.6826 291.326 61.7583 291.636 61.7583 291.996C61.7583 292.378 61.6643 292.72 61.4765 293.023C61.2886 293.325 61.0095 293.564 60.6391 293.738C60.2687 293.913 59.8094 294 59.2611 294H56.186ZM57.678 292.774H58.9651C59.4031 292.774 59.7225 292.689 59.9231 292.52C60.1236 292.351 60.2239 292.129 60.2239 291.854C60.2239 291.649 60.1744 291.467 60.0753 291.308C59.9762 291.15 59.8355 291.025 59.6532 290.935C59.4709 290.845 59.2543 290.799 59.0033 290.799H57.678V292.774ZM57.678 289.781H58.8524C59.0653 289.781 59.2561 289.743 59.4246 289.667C59.5931 289.59 59.726 289.482 59.8233 289.34C59.9207 289.199 59.9693 289.03 59.9693 288.834C59.9693 288.569 59.8753 288.354 59.6872 288.188C59.4991 288.023 59.2306 287.94 58.8817 287.94H57.678V289.781ZM65.2942 286.725V294H63.8022V286.725H65.2942ZM70.8069 294.098C70.164 294.098 69.5861 293.951 69.0731 293.658C68.5601 293.365 68.1548 292.94 67.8573 292.383C67.5597 291.827 67.411 291.155 67.411 290.367C67.411 289.575 67.5597 288.9 67.8573 288.342C68.1548 287.785 68.5601 287.36 69.0731 287.067C69.5861 286.773 70.164 286.627 70.8069 286.627C71.4497 286.627 72.0268 286.773 72.5382 287.067C73.0496 287.36 73.4541 287.785 73.7518 288.342C74.0495 288.9 74.1983 289.575 74.1983 290.367C74.1983 291.157 74.0495 291.829 73.7518 292.386C73.4541 292.942 73.0496 293.367 72.5382 293.659C72.0268 293.951 71.4497 294.098 70.8069 294.098ZM70.8069 292.774C71.1836 292.774 71.5126 292.682 71.794 292.497C72.0753 292.313 72.2943 292.041 72.4509 291.683C72.6075 291.324 72.6858 290.885 72.6858 290.367C72.6858 289.844 72.6075 289.403 72.4509 289.043C72.2943 288.684 72.0753 288.412 71.794 288.227C71.5126 288.043 71.1836 287.95 70.8069 287.95C70.4304 287.95 70.1012 288.043 69.819 288.228C69.5369 288.414 69.3171 288.686 69.1596 289.046C69.0021 289.405 68.9234 289.846 68.9234 290.367C68.9234 290.885 69.0021 291.324 69.1596 291.681C69.3171 292.039 69.5369 292.311 69.819 292.496C70.1012 292.682 70.4304 292.774 70.8069 292.774ZM76.3149 294V286.725H78.6036L79.7812 290.065C79.8305 290.219 79.8869 290.421 79.9503 290.669C80.0137 290.917 80.0781 291.185 80.1436 291.471C80.2091 291.757 80.2704 292.035 80.3275 292.305C80.3846 292.575 80.4317 292.81 80.4687 293.01H80.1766C80.2151 292.814 80.2625 292.582 80.3187 292.314C80.375 292.046 80.4358 291.768 80.5013 291.481C80.5668 291.194 80.6312 290.925 80.6944 290.675C80.7577 290.424 80.814 290.221 80.8633 290.065L82.0244 286.725H84.318V294H82.8222V290.57C82.8222 290.411 82.8248 290.214 82.8299 289.977C82.8351 289.74 82.8414 289.484 82.8489 289.209C82.8564 288.934 82.8635 288.657 82.8701 288.377C82.8768 288.098 82.8809 287.835 82.8824 287.59H82.9789C82.9159 287.86 82.8465 288.139 82.7709 288.426C82.6953 288.713 82.6195 288.992 82.5436 289.263C82.4678 289.534 82.3955 289.783 82.3269 290.008C82.2583 290.234 82.1994 290.421 82.1503 290.57L80.9463 294H79.6897L78.4665 290.57C78.4174 290.423 78.3588 290.237 78.2908 290.014C78.2228 289.79 78.15 289.544 78.0724 289.275C77.9947 289.005 77.9173 288.726 77.84 288.437C77.7628 288.148 77.6888 287.866 77.6179 287.59H77.7348C77.7378 287.825 77.7426 288.081 77.7493 288.357C77.7559 288.634 77.7626 288.911 77.7694 289.188C77.7762 289.465 77.7825 289.724 77.7884 289.964C77.7943 290.205 77.7972 290.407 77.7972 290.57V294H76.3149ZM86.6313 294V286.725H91.5026V287.962H88.1233V289.718H91.2449V290.933H88.1233V292.763H91.5123V294H86.6313ZM93.4158 287.962V286.725H99.3569V287.962H97.1346V294H95.6426V287.962H93.4158ZM101.38 294V286.725H104.219C104.771 286.725 105.241 286.822 105.628 287.018C106.015 287.213 106.311 287.489 106.515 287.844C106.718 288.199 106.82 288.615 106.82 289.092C106.82 289.572 106.717 289.986 106.511 290.332C106.304 290.678 106.005 290.943 105.612 291.128C105.219 291.312 104.743 291.405 104.184 291.405H102.262V290.197H103.947C104.251 290.197 104.501 290.155 104.697 290.072C104.894 289.989 105.041 289.865 105.138 289.702C105.235 289.538 105.283 289.335 105.283 289.092C105.283 288.846 105.235 288.639 105.138 288.471C105.041 288.302 104.894 288.174 104.696 288.086C104.499 287.998 104.248 287.954 103.943 287.954H102.872V294H101.38ZM105.428 294L103.66 290.689H105.274L107.082 294H105.428ZM110.44 286.725V294H108.948V286.725H110.44ZM115.934 294.098C115.29 294.098 114.713 293.951 114.203 293.658C113.694 293.365 113.292 292.94 112.998 292.383C112.704 291.827 112.556 291.155 112.556 290.367C112.556 289.575 112.705 288.9 113.002 288.342C113.298 287.785 113.702 287.36 114.212 287.067C114.723 286.773 115.297 286.627 115.934 286.627C116.348 286.627 116.733 286.685 117.09 286.8C117.447 286.915 117.764 287.084 118.04 287.305C118.316 287.527 118.543 287.798 118.72 288.118C118.896 288.438 119.012 288.803 119.067 289.212H117.559C117.524 289.013 117.461 288.835 117.369 288.68C117.277 288.524 117.162 288.392 117.022 288.283C116.883 288.174 116.724 288.091 116.545 288.035C116.367 287.979 116.174 287.95 115.966 287.95C115.588 287.95 115.256 288.045 114.97 288.234C114.685 288.423 114.463 288.697 114.305 289.056C114.148 289.416 114.069 289.853 114.069 290.367C114.069 290.891 114.149 291.332 114.309 291.69C114.469 292.049 114.691 292.319 114.975 292.501C115.259 292.683 115.588 292.774 115.961 292.774C116.168 292.774 116.361 292.746 116.539 292.689C116.716 292.632 116.876 292.549 117.017 292.44C117.158 292.332 117.275 292.2 117.369 292.044C117.463 291.888 117.528 291.71 117.564 291.512H119.072C119.031 291.85 118.931 292.173 118.771 292.482C118.611 292.791 118.396 293.067 118.128 293.31C117.86 293.554 117.542 293.746 117.174 293.887C116.807 294.027 116.393 294.098 115.934 294.098Z" fill="#404752"/>
</g>
<defs>
<filter id="filter0_f_808_8512" x="-31" y="0" width="454" height="454" filterUnits="userSpaceOnUse" color-interpolation-filters="sRGB">
<feFlood flood-opacity="0" result="BackgroundImageFix"/>
<feBlend mode="normal" in="SourceGraphic" in2="BackgroundImageFix" result="shape"/>
<feGaussianBlur stdDeviation="32" result="effect1_foregroundBlur_808_8512"/>
</filter>
<clipPath id="bgblur_0_808_8512_clip_path" transform="translate(-76 -107)"><rect x="100" y="131" width="192" height="192" rx="24"/>
</clipPath><filter id="filter2_d_808_8512" x="62" y="118" width="268" height="268" filterUnits="userSpaceOnUse" color-interpolation-filters="sRGB">
<feFlood flood-opacity="0" result="BackgroundImageFix"/>
<feColorMatrix in="SourceAlpha" type="matrix" values="0 0 0 0 0 0 0 0 0 0 0 0 0 0 0 0 0 0 127 0" result="hardAlpha"/>
<feMorphology radius="12" operator="erode" in="SourceAlpha" result="effect1_dropShadow_808_8512"/>
<feOffset dy="25"/>
<feGaussianBlur stdDeviation="25"/>
<feComposite in2="hardAlpha" operator="out"/>
<feColorMatrix type="matrix" values="0 0 0 0 0 0 0 0 0 0.321569 0 0 0 0 0.85098 0 0 0 0.1 0"/>
<feBlend mode="normal" in2="BackgroundImageFix" result="effect1_dropShadow_808_8512"/>
<feBlend mode="normal" in="SourceGraphic" in2="effect1_dropShadow_808_8512" result="shape"/>
</filter>
<filter id="filter3_dd_808_8512" x="144" y="170" width="104" height="112" filterUnits="userSpaceOnUse" color-interpolation-filters="sRGB">
<feFlood flood-opacity="0" result="BackgroundImageFix"/>
<feColorMatrix in="SourceAlpha" type="matrix" values="0 0 0 0 0 0 0 0 0 0 0 0 0 0 0 0 0 0 127 0" result="hardAlpha"/>
<feMorphology radius="4" operator="erode" in="SourceAlpha" result="effect1_dropShadow_808_8512"/>
<feOffset dy="4"/>
<feGaussianBlur stdDeviation="3"/>
<feComposite in2="hardAlpha" operator="out"/>
<feColorMatrix type="matrix" values="0 0 0 0 0 0 0 0 0 0.321569 0 0 0 0 0.85098 0 0 0 0.3 0"/>
<feBlend mode="normal" in2="BackgroundImageFix" result="effect1_dropShadow_808_8512"/>
<feColorMatrix in="SourceAlpha" type="matrix" values="0 0 0 0 0 0 0 0 0 0 0 0 0 0 0 0 0 0 127 0" result="hardAlpha"/>
<feMorphology radius="3" operator="erode" in="SourceAlpha" result="effect2_dropShadow_808_8512"/>
<feOffset dy="10"/>
<feGaussianBlur stdDeviation="7.5"/>
<feComposite in2="hardAlpha" operator="out"/>
<feColorMatrix type="matrix" values="0 0 0 0 0 0 0 0 0 0.321569 0 0 0 0 0.85098 0 0 0 0.3 0"/>
<feBlend mode="normal" in2="effect1_dropShadow_808_8512" result="effect2_dropShadow_808_8512"/>
<feBlend mode="normal" in="SourceGraphic" in2="effect2_dropShadow_808_8512" result="shape"/>
</filter>
<filter id="filter4_d_808_8512" x="232.02" y="59" width="147.98" height="81" filterUnits="userSpaceOnUse" color-interpolation-filters="sRGB">
<feFlood flood-opacity="0" result="BackgroundImageFix"/>
<feColorMatrix in="SourceAlpha" type="matrix" values="0 0 0 0 0 0 0 0 0 0 0 0 0 0 0 0 0 0 127 0" result="hardAlpha"/>
<feOffset dy="1"/>
<feGaussianBlur stdDeviation="1"/>
<feComposite in2="hardAlpha" operator="out"/>
<feColorMatrix type="matrix" values="0 0 0 0 0 0 0 0 0 0 0 0 0 0 0 0 0 0 0.05 0"/>
<feBlend mode="normal" in2="BackgroundImageFix" result="effect1_dropShadow_808_8512"/>
<feBlend mode="normal" in="SourceGraphic" in2="effect1_dropShadow_808_8512" result="shape"/>
</filter>
<clipPath id="bgblur_1_808_8512_clip_path" transform="translate(-232.02 -59)"><rect x="256.02" y="83" width="99.98" height="33" rx="16.5"/>
</clipPath><filter id="filter5_d_808_8512" x="-4" y="250" width="165.119" height="81" filterUnits="userSpaceOnUse" color-interpolation-filters="sRGB">
<feFlood flood-opacity="0" result="BackgroundImageFix"/>
<feColorMatrix in="SourceAlpha" type="matrix" values="0 0 0 0 0 0 0 0 0 0 0 0 0 0 0 0 0 0 127 0" result="hardAlpha"/>
<feOffset dy="1"/>
<feGaussianBlur stdDeviation="1"/>
<feComposite in2="hardAlpha" operator="out"/>
<feColorMatrix type="matrix" values="0 0 0 0 0 0 0 0 0 0 0 0 0 0 0 0 0 0 0.05 0"/>
<feBlend mode="normal" in2="BackgroundImageFix" result="effect1_dropShadow_808_8512"/>
<feBlend mode="normal" in="SourceGraphic" in2="effect1_dropShadow_808_8512" result="shape"/>
</filter>
<clipPath id="bgblur_2_808_8512_clip_path" transform="translate(4 -250)"><rect x="20" y="274" width="117.119" height="33" rx="16.5"/>
</clipPath><linearGradient id="paint0_linear_808_8512" x1="33" y1="64" x2="359" y2="390" gradientUnits="userSpaceOnUse">
<stop stop-color="#0052D9" stop-opacity="0.05"/>
<stop offset="1" stop-color="#006C49" stop-opacity="0.05"/>
</linearGradient>
<linearGradient id="paint1_linear_808_8512" x1="156" y1="172" x2="243.602" y2="251.638" gradientUnits="userSpaceOnUse">
<stop stop-color="#2F8CD8"/>
<stop offset="1" stop-color="#18C776"/>
</linearGradient>
</defs>
</svg>
