<svg width="40" height="40" viewBox="0 0 40 40" fill="none" xmlns="http://www.w3.org/2000/svg">
<rect width="40" height="40" rx="16" fill="#006779" fill-opacity="0.1"/>
<path d="M30.6625 26.4375L28.6625 24.4375V14.3125H24.6125L22.7875 12.3125H18.5375L17.5875 13.3625L16.1625 11.9375L17.6625 10.3125H23.6625L25.5125 12.3125H28.6625C29.2125 12.3125 29.6833 12.5083 30.075 12.9C30.4667 13.2916 30.6625 13.7625 30.6625 14.3125V26.4375ZM12.6625 28.3125C12.1125 28.3125 11.6417 28.1166 11.25 27.725C10.8583 27.3333 10.6625 26.8624 10.6625 26.3125V14.3125C10.6625 13.7625 10.8583 13.2916 11.25 12.9C11.6417 12.5083 12.1125 12.3125 12.6625 12.3125H13.6875L15.6875 14.3125H12.6625V26.3125H27.6875L29.6875 28.3125H12.6625ZM24.3125 22.9375C23.8958 23.5041 23.375 23.9583 22.75 24.3C22.125 24.6416 21.4292 24.8125 20.6625 24.8125C19.4125 24.8125 18.35 24.375 17.475 23.5C16.6 22.625 16.1625 21.5625 16.1625 20.3125C16.1625 19.5458 16.3333 18.85 16.675 18.225C17.0167 17.6 17.4708 17.0791 18.0375 16.6625L19.4875 18.1125C19.0875 18.3291 18.7667 18.6291 18.525 19.0125C18.2833 19.3958 18.1625 19.8291 18.1625 20.3125C18.1625 21.0125 18.4042 21.6041 18.8875 22.0875C19.3708 22.5708 19.9625 22.8125 20.6625 22.8125C21.1458 22.8125 21.5792 22.6916 21.9625 22.45C22.3458 22.2083 22.6458 21.8875 22.8625 21.4875L24.3125 22.9375ZM23.8625 17.1125C24.2792 17.5125 24.6 17.9875 24.825 18.5375C25.05 19.0875 25.1625 19.6791 25.1625 20.3125C25.1625 20.4125 25.1625 20.5125 25.1625 20.6125C25.1625 20.7125 25.1542 20.8125 25.1375 20.9125L20.0625 15.8375C20.1625 15.8208 20.2625 15.8125 20.3625 15.8125C20.4625 15.8125 20.5625 15.8125 20.6625 15.8125C21.2958 15.8125 21.8875 15.925 22.4375 16.15C22.9875 16.375 23.4625 16.6958 23.8625 17.1125ZM29.1375 30.6125L9.33749 10.8125L10.7625 9.38745L30.5625 29.1875L29.1375 30.6125Z" fill="#006779"/>
</svg>
