<svg width="32" height="32" viewBox="0 0 32 32" fill="none" xmlns="http://www.w3.org/2000/svg">
<path d="M28.7948 28.803C28.7948 28.803 23.7208 32 15.9547 32C8.18848 32 3.11453 28.803 3.11453 28.803C3.11453 28.803 0 24.942 0 16.0032C0 7.06442 3.11545 3.19699 3.11545 3.19699C3.11545 3.19699 8.36527 0 16.0023 0C24.5746 0 28.7957 3.19699 28.7957 3.19699C28.7957 3.19699 32.0018 6.89087 32.0018 16.0005C32.0018 25.11 28.7957 28.8039 28.7957 28.8039L28.7948 28.803Z" fill="#EFF8FF"/>
<g clip-path="url(#clip0_249_1031)">
<path d="M24.25 21.75C24.25 22.1478 24.092 22.5294 23.8107 22.8107C23.5294 23.092 23.1478 23.25 22.75 23.25H9.25C8.85218 23.25 8.47064 23.092 8.18934 22.8107C7.90804 22.5294 7.75 22.1478 7.75 21.75V13.5C7.75 13.1022 7.90804 12.7206 8.18934 12.4393C8.47064 12.158 8.85218 12 9.25 12H12.25L13.75 9.75H18.25L19.75 12H22.75C23.1478 12 23.5294 12.158 23.8107 12.4393C24.092 12.7206 24.25 13.1022 24.25 13.5V21.75Z" stroke="url(#paint0_linear_249_1031)" stroke-width="2" stroke-linecap="round" stroke-linejoin="round"/>
<path d="M16 20.25C17.6569 20.25 19 18.9069 19 17.25C19 15.5931 17.6569 14.25 16 14.25C14.3431 14.25 13 15.5931 13 17.25C13 18.9069 14.3431 20.25 16 20.25Z" stroke="url(#paint1_linear_249_1031)" stroke-width="2" stroke-linecap="round" stroke-linejoin="round"/>
</g>
<defs>
<linearGradient id="paint0_linear_249_1031" x1="16" y1="23.25" x2="16" y2="9.75" gradientUnits="userSpaceOnUse">
<stop stop-color="#2F8CD8"/>
<stop offset="1" stop-color="#18C776"/>
</linearGradient>
<linearGradient id="paint1_linear_249_1031" x1="16" y1="20.25" x2="16" y2="14.25" gradientUnits="userSpaceOnUse">
<stop stop-color="#2F8CD8"/>
<stop offset="1" stop-color="#18C776"/>
</linearGradient>
<clipPath id="clip0_249_1031">
<rect width="18" height="18" fill="white" transform="translate(7 7.5)"/>
</clipPath>
</defs>
</svg>
