<svg width="40" height="40" viewBox="0 0 40 40" fill="none" xmlns="http://www.w3.org/2000/svg">
<rect width="40" height="40" rx="16" fill="#0052D9" fill-opacity="0.1"/>
<path d="M17 22.25C16.65 22.25 16.3542 22.1292 16.1125 21.8875C15.8708 21.6458 15.75 21.35 15.75 21C15.75 20.65 15.8708 20.3542 16.1125 20.1125C16.3542 19.8708 16.65 19.75 17 19.75C17.35 19.75 17.6458 19.8708 17.8875 20.1125C18.1292 20.3542 18.25 20.65 18.25 21C18.25 21.35 18.1292 21.6458 17.8875 21.8875C17.6458 22.1292 17.35 22.25 17 22.25ZM23 22.25C22.65 22.25 22.3542 22.1292 22.1125 21.8875C21.8708 21.6458 21.75 21.35 21.75 21C21.75 20.65 21.8708 20.3542 22.1125 20.1125C22.3542 19.8708 22.65 19.75 23 19.75C23.35 19.75 23.6458 19.8708 23.8875 20.1125C24.1292 20.3542 24.25 20.65 24.25 21C24.25 21.35 24.1292 21.6458 23.8875 21.8875C23.6458 22.1292 23.35 22.25 23 22.25ZM20 28C22.2333 28 24.125 27.225 25.675 25.675C27.225 24.125 28 22.2333 28 20C28 19.6 27.975 19.2125 27.925 18.8375C27.875 18.4625 27.7833 18.1 27.65 17.75C27.3 17.8333 26.95 17.8958 26.6 17.9375C26.25 17.9792 25.8833 18 25.5 18C23.9833 18 22.55 17.675 21.2 17.025C19.85 16.375 18.7 15.4667 17.75 14.3C17.2167 15.6 16.4542 16.7292 15.4625 17.6875C14.4708 18.6458 13.3167 19.3667 12 19.85C12 19.8833 12 19.9083 12 19.925C12 19.9417 12 19.9667 12 20C12 22.2333 12.775 24.125 14.325 25.675C15.875 27.225 17.7667 28 20 28ZM20 30C18.6167 30 17.3167 29.7375 16.1 29.2125C14.8833 28.6875 13.825 27.975 12.925 27.075C12.025 26.175 11.3125 25.1167 10.7875 23.9C10.2625 22.6833 10 21.3833 10 20C10 18.6167 10.2625 17.3167 10.7875 16.1C11.3125 14.8833 12.025 13.825 12.925 12.925C13.825 12.025 14.8833 11.3125 16.1 10.7875C17.3167 10.2625 18.6167 10 20 10C21.3833 10 22.6833 10.2625 23.9 10.7875C25.1167 11.3125 26.175 12.025 27.075 12.925C27.975 13.825 28.6875 14.8833 29.2125 16.1C29.7375 17.3167 30 18.6167 30 20C30 21.3833 29.7375 22.6833 29.2125 23.9C28.6875 25.1167 27.975 26.175 27.075 27.075C26.175 27.975 25.1167 28.6875 23.9 29.2125C22.6833 29.7375 21.3833 30 20 30ZM18.65 12.125C19.35 13.2917 20.3 14.2292 21.5 14.9375C22.7 15.6458 24.0333 16 25.5 16C25.7333 16 25.9583 15.9875 26.175 15.9625C26.3917 15.9375 26.6167 15.9083 26.85 15.875C26.15 14.7083 25.2 13.7708 24 13.0625C22.8 12.3542 21.4667 12 20 12C19.7667 12 19.5417 12.0125 19.325 12.0375C19.1083 12.0625 18.8833 12.0917 18.65 12.125ZM12.425 17.475C13.275 16.9917 14.0167 16.3667 14.65 15.6C15.2833 14.8333 15.7583 13.975 16.075 13.025C15.225 13.5083 14.4833 14.1333 13.85 14.9C13.2167 15.6667 12.7417 16.525 12.425 17.475Z" fill="#0052D9"/>
</svg>
