<svg width="44" height="44" viewBox="0 0 44 44" fill="none" xmlns="http://www.w3.org/2000/svg">
<g filter="url(#filter0_d_812_5809)">
<rect x="2" y="1" width="40" height="40" rx="20" fill="white" shape-rendering="crispEdges"/>
<path d="M21.1666 25.1667H22.8333V20.1667H21.1666V25.1667ZM22 18.5001C22.2361 18.5001 22.434 18.4202 22.5937 18.2605C22.7534 18.1008 22.8333 17.9029 22.8333 17.6667C22.8333 17.4306 22.7534 17.2327 22.5937 17.073C22.434 16.9133 22.2361 16.8334 22 16.8334C21.7638 16.8334 21.5659 16.9133 21.4062 17.073C21.2465 17.2327 21.1666 17.4306 21.1666 17.6667C21.1666 17.9029 21.2465 18.1008 21.4062 18.2605C21.5659 18.4202 21.7638 18.5001 22 18.5001ZM22 29.3334C20.8472 29.3334 19.7638 29.1147 18.75 28.6772C17.7361 28.2397 16.8541 27.6459 16.1041 26.8959C15.3541 26.1459 14.7604 25.264 14.3229 24.2501C13.8854 23.2362 13.6666 22.1529 13.6666 21.0001C13.6666 19.8473 13.8854 18.764 14.3229 17.7501C14.7604 16.7362 15.3541 15.8542 16.1041 15.1042C16.8541 14.3542 17.7361 13.7605 18.75 13.323C19.7638 12.8855 20.8472 12.6667 22 12.6667C23.1527 12.6667 24.2361 12.8855 25.25 13.323C26.2638 13.7605 27.1458 14.3542 27.8958 15.1042C28.6458 15.8542 29.2395 16.7362 29.677 17.7501C30.1145 18.764 30.3333 19.8473 30.3333 21.0001C30.3333 22.1529 30.1145 23.2362 29.677 24.2501C29.2395 25.264 28.6458 26.1459 27.8958 26.8959C27.1458 27.6459 26.2638 28.2397 25.25 28.6772C24.2361 29.1147 23.1527 29.3334 22 29.3334ZM22 27.6667C23.8611 27.6667 25.4375 27.0209 26.7291 25.7292C28.0208 24.4376 28.6666 22.8612 28.6666 21.0001C28.6666 19.139 28.0208 17.5626 26.7291 16.2709C25.4375 14.9792 23.8611 14.3334 22 14.3334C20.1388 14.3334 18.5625 14.9792 17.2708 16.2709C15.9791 17.5626 15.3333 19.139 15.3333 21.0001C15.3333 22.8612 15.9791 24.4376 17.2708 25.7292C18.5625 27.0209 20.1388 27.6667 22 27.6667Z" fill="#2F8CD8"/>
</g>
<defs>
<filter id="filter0_d_812_5809" x="0" y="0" width="44" height="44" filterUnits="userSpaceOnUse" color-interpolation-filters="sRGB">
<feFlood flood-opacity="0" result="BackgroundImageFix"/>
<feColorMatrix in="SourceAlpha" type="matrix" values="0 0 0 0 0 0 0 0 0 0 0 0 0 0 0 0 0 0 127 0" result="hardAlpha"/>
<feOffset dy="1"/>
<feGaussianBlur stdDeviation="1"/>
<feComposite in2="hardAlpha" operator="out"/>
<feColorMatrix type="matrix" values="0 0 0 0 0 0 0 0 0 0 0 0 0 0 0 0 0 0 0.05 0"/>
<feBlend mode="normal" in2="BackgroundImageFix" result="effect1_dropShadow_812_5809"/>
<feBlend mode="normal" in="SourceGraphic" in2="effect1_dropShadow_812_5809" result="shape"/>
</filter>
</defs>
</svg>
