<svg width="40" height="40" viewBox="0 0 40 40" fill="none" xmlns="http://www.w3.org/2000/svg">
<rect width="40" height="40" rx="16" fill="#006C49" fill-opacity="0.1"/>
<path d="M20 23C20.8333 23 21.5417 22.7083 22.125 22.125C22.7083 21.5417 23 20.8333 23 20C23 19.1667 22.7083 18.4583 22.125 17.875C21.5417 17.2917 20.8333 17 20 17C19.1667 17 18.4583 17.2917 17.875 17.875C17.2917 18.4583 17 19.1667 17 20C17 20.8333 17.2917 21.5417 17.875 22.125C18.4583 22.7083 19.1667 23 20 23ZM20 25C18.6167 25 17.4375 24.5125 16.4625 23.5375C15.4875 22.5625 15 21.3833 15 20C15 18.6167 15.4875 17.4375 16.4625 16.4625C17.4375 15.4875 18.6167 15 20 15C21.3833 15 22.5625 15.4875 23.5375 16.4625C24.5125 17.4375 25 18.6167 25 20C25 21.3833 24.5125 22.5625 23.5375 23.5375C22.5625 24.5125 21.3833 25 20 25ZM13 21H9V19H13V21ZM31 21H27V19H31V21ZM19 13V9H21V13H19ZM19 31V27H21V31H19ZM14.4 15.75L11.875 13.325L13.3 11.85L15.7 14.35L14.4 15.75ZM26.7 28.15L24.275 25.625L25.6 24.25L28.125 26.675L26.7 28.15ZM24.25 14.4L26.675 11.875L28.15 13.3L25.65 15.7L24.25 14.4ZM11.85 26.7L14.375 24.275L15.75 25.6L13.325 28.125L11.85 26.7Z" fill="#006C49"/>
</svg>
