<svg width="40" height="40" viewBox="0 0 40 40" fill="none" xmlns="http://www.w3.org/2000/svg">
<rect width="40" height="40" rx="16" fill="#0052D9" fill-opacity="0.1"/>
<path d="M13.625 20.9L9.72501 17L13.625 13.1L17.525 17L13.625 20.9ZM17.125 30.5V25.5C16.1083 25.4167 15.1 25.2958 14.1 25.1375C13.1 24.9792 12.1083 24.7667 11.125 24.5L11.625 22.5C13.025 22.8833 14.4292 23.1458 15.8375 23.2875C17.2458 23.4292 18.675 23.5 20.125 23.5C21.575 23.5 23.0042 23.4292 24.4125 23.2875C25.8208 23.1458 27.225 22.8833 28.625 22.5L29.125 24.5C28.1417 24.7667 27.15 24.9792 26.15 25.1375C25.15 25.2958 24.1417 25.4167 23.125 25.5V30.5H17.125ZM13.625 18.1L14.725 17L13.625 15.9L12.525 17L13.625 18.1ZM20.125 15.5C19.2917 15.5 18.5833 15.2083 18 14.625C17.4167 14.0417 17.125 13.3333 17.125 12.5C17.125 11.6667 17.4167 10.9583 18 10.375C18.5833 9.79167 19.2917 9.5 20.125 9.5C20.9583 9.5 21.6667 9.79167 22.25 10.375C22.8333 10.9583 23.125 11.6667 23.125 12.5C23.125 13.3333 22.8333 14.0417 22.25 14.625C21.6667 15.2083 20.9583 15.5 20.125 15.5ZM20.125 22.5C19.575 22.5 19.1042 22.3042 18.7125 21.9125C18.3208 21.5208 18.125 21.05 18.125 20.5C18.125 19.95 18.3208 19.4792 18.7125 19.0875C19.1042 18.6958 19.575 18.5 20.125 18.5C20.675 18.5 21.1458 18.6958 21.5375 19.0875C21.9292 19.4792 22.125 19.95 22.125 20.5C22.125 21.05 21.9292 21.5208 21.5375 21.9125C21.1458 22.3042 20.675 22.5 20.125 22.5ZM20.125 13.5C20.4083 13.5 20.6458 13.4042 20.8375 13.2125C21.0292 13.0208 21.125 12.7833 21.125 12.5C21.125 12.2167 21.0292 11.9792 20.8375 11.7875C20.6458 11.5958 20.4083 11.5 20.125 11.5C19.8417 11.5 19.6042 11.5958 19.4125 11.7875C19.2208 11.9792 19.125 12.2167 19.125 12.5C19.125 12.7833 19.2208 13.0208 19.4125 13.2125C19.6042 13.4042 19.8417 13.5 20.125 13.5ZM25.175 20.5L23.475 17.5L25.175 14.5H28.575L30.275 17.5L28.575 20.5H25.175ZM26.325 18.5H27.425L27.975 17.5L27.425 16.5H26.325L25.775 17.5L26.325 18.5Z" fill="#0052D9"/>
</svg>
