<svg width="20" height="19" viewBox="0 0 20 19" fill="none" xmlns="http://www.w3.org/2000/svg">
<path d="M7.22471 9.26363C7.87302 10.5228 8.94739 11.5388 10.2758 12.149C10.3729 12.1927 10.4804 12.2117 10.5877 12.204C10.6949 12.1962 10.7982 12.1621 10.8874 12.105L12.8433 10.866C12.9298 10.8112 13.0293 10.7777 13.1328 10.7687C13.2364 10.7597 13.3407 10.7753 13.4362 10.8142L17.0954 12.304C17.2197 12.3542 17.3234 12.4413 17.3911 12.5524C17.4587 12.6635 17.4865 12.7924 17.4702 12.9198C17.3546 13.7795 16.913 14.5698 16.2282 15.1425C15.5434 15.7152 14.6624 16.0312 13.75 16.0312C10.9321 16.0312 8.22956 14.9678 6.23699 13.0749C4.24442 11.1819 3.125 8.61453 3.125 5.9375C3.12505 5.07075 3.45765 4.23374 4.06053 3.58319C4.66341 2.93263 5.49523 2.51315 6.40023 2.40327C6.53431 2.38786 6.67002 2.41426 6.78693 2.47849C6.90384 2.54272 6.99561 2.64131 7.04841 2.75939L8.61798 6.23861C8.65858 6.3286 8.67512 6.42674 8.66614 6.52427C8.65715 6.62181 8.62291 6.71572 8.56647 6.79764L7.26676 8.68426C7.2076 8.76913 7.17263 8.86713 7.16526 8.96868C7.15789 9.07022 7.17837 9.17185 7.22471 9.26363V9.26363Z" stroke="url(#paint0_linear_627_4036)" stroke-width="2" stroke-linecap="round" stroke-linejoin="round"/>
<defs>
<linearGradient id="paint0_linear_627_4036" x1="10.2999" y1="2.39899" x2="10.2999" y2="16.0312" gradientUnits="userSpaceOnUse">
<stop stop-color="#2F8CD8"/>
<stop offset="1" stop-color="#18C776"/>
</linearGradient>
</defs>
</svg>
