<svg width="32" height="32" viewBox="0 0 32 32" fill="none" xmlns="http://www.w3.org/2000/svg">
<path d="M28.7948 28.803C28.7948 28.803 23.7208 32 15.9547 32C8.18848 32 3.11453 28.803 3.11453 28.803C3.11453 28.803 0 24.942 0 16.0032C0 7.06442 3.11545 3.19699 3.11545 3.19699C3.11545 3.19699 8.36527 0 16.0023 0C24.5746 0 28.7957 3.19699 28.7957 3.19699C28.7957 3.19699 32.0018 6.89087 32.0018 16.0005C32.0018 25.11 28.7957 28.8039 28.7957 28.8039L28.7948 28.803Z" fill="#EFF8FF"/>
<path d="M16.0012 17.6453C19.6164 17.6453 22.6669 18.2325 22.6672 20.4988C22.6672 22.7663 19.5966 23.3337 16.0012 23.3337C12.3866 23.3337 9.33428 22.7459 9.33423 20.4792C9.33423 18.2117 12.4057 17.6453 16.0012 17.6453ZM16.0012 6.66675C18.4504 6.66687 20.4124 8.62848 20.4124 11.0759C20.4124 13.5234 18.4504 15.486 16.0012 15.4861C13.5528 15.4861 11.5891 13.5235 11.5891 11.0759C11.5891 8.62841 13.5528 6.66675 16.0012 6.66675Z" fill="url(#paint0_linear_249_1013)"/>
<defs>
<linearGradient id="paint0_linear_249_1013" x1="16.0007" y1="6.66675" x2="16.0007" y2="23.3337" gradientUnits="userSpaceOnUse">
<stop stop-color="#2F8CD8"/>
<stop offset="1" stop-color="#18C776"/>
</linearGradient>
</defs>
</svg>
