<svg width="64" height="64" viewBox="0 0 64 64" fill="none" xmlns="http://www.w3.org/2000/svg">
<rect width="64" height="64" rx="32" fill="#EFF8FF"/>
<path d="M30.5 42.5H33.5V36.2375L35.9 38.6375L38 36.5L32 30.5L26 36.5L28.1375 38.6L30.5 36.2375V42.5ZM23 47C22.175 47 21.4688 46.7062 20.8813 46.1187C20.2938 45.5312 20 44.825 20 44V20C20 19.175 20.2938 18.4688 20.8813 17.8813C21.4688 17.2938 22.175 17 23 17H35L44 26V44C44 44.825 43.7062 45.5312 43.1187 46.1187C42.5312 46.7062 41.825 47 41 47H23ZM33.5 27.5V20H23V44H41V27.5H33.5ZM23 20V27.5V20V27.5V44V20Z" fill="#2F8CD8"/>
</svg>
