<svg width="64" height="64" viewBox="0 0 64 64" fill="none" xmlns="http://www.w3.org/2000/svg">
<rect width="64" height="64" rx="32" fill="#EFF8FF"/>
<path d="M21.5 45.5C20.675 45.5 19.9688 45.2062 19.3813 44.6187C18.7938 44.0312 18.5 43.325 18.5 42.5V21.5C18.5 20.675 18.7938 19.9688 19.3813 19.3813C19.9688 18.7938 20.675 18.5 21.5 18.5H33.5C33.5 18.925 33.5 19.3875 33.5 19.8875C33.5 20.3875 33.5 20.925 33.5 21.5H21.5V42.5H42.5V30.5C43.075 30.5 43.6125 30.5 44.1125 30.5C44.6125 30.5 45.075 30.5 45.5 30.5V42.5C45.5 43.325 45.2062 44.0312 44.6187 44.6187C44.0312 45.2062 43.325 45.5 42.5 45.5H21.5ZM23 39.5H41L35.375 32L30.875 38L27.5 33.5L23 39.5ZM39.5 27.5V24.5H36.5V21.5H39.5V18.5H42.5V21.5H45.5V24.5H42.5V27.5H39.5Z" fill="#2F8CD8"/>
</svg>
