<svg width="20" height="19" viewBox="0 0 20 19" fill="none" xmlns="http://www.w3.org/2000/svg">
<g clip-path="url(#clip0_1239_4907)">
<path d="M10 5.14584C12.3 5.14584 14.1667 6.91917 14.1667 9.10417C14.1667 9.50792 14.0834 9.89584 13.9667 10.26L16.5167 12.6825C17.675 11.7088 18.5917 10.4896 19.1667 9.09626C17.725 5.62876 14.1667 3.16667 10 3.16667C8.94171 3.16667 7.92504 3.32501 6.96671 3.61792L8.77504 5.33584C9.16671 5.22501 9.57504 5.14584 10 5.14584ZM2.25837 2.50167C1.93337 2.81042 1.93337 3.30917 2.25837 3.61792L3.90004 5.17751C2.55004 6.19876 1.47504 7.54459 0.833374 9.10417C2.27504 12.5796 5.83337 15.0417 10 15.0417C11.2667 15.0417 12.475 14.8042 13.5917 14.3925L15.8584 16.5458C16.1834 16.8546 16.7084 16.8546 17.0334 16.5458C17.3584 16.2371 17.3584 15.7383 17.0334 15.4296L3.44171 2.50167C3.11671 2.19292 2.58337 2.19292 2.25837 2.50167ZM10 13.0625C7.70004 13.0625 5.83337 11.2892 5.83337 9.10417C5.83337 8.49459 5.98337 7.91667 6.24171 7.41001L7.55004 8.65292C7.52504 8.79542 7.50004 8.94584 7.50004 9.10417C7.50004 10.4183 8.61671 11.4792 10 11.4792C10.1667 11.4792 10.3167 11.4554 10.475 11.4238L11.7834 12.6667C11.2417 12.92 10.6417 13.0625 10 13.0625ZM12.475 8.84292C12.35 7.73459 11.4334 6.87167 10.275 6.75292L12.475 8.84292Z" fill="url(#paint0_linear_1239_4907)"/>
</g>
<defs>
<linearGradient id="paint0_linear_1239_4907" x1="10" y1="2.27011" x2="10" y2="16.7774" gradientUnits="userSpaceOnUse">
<stop stop-color="#2F8CD8"/>
<stop offset="1" stop-color="#18C776"/>
</linearGradient>
<clipPath id="clip0_1239_4907">
<rect width="20" height="19" fill="white"/>
</clipPath>
</defs>
</svg>
