<svg width="20" height="19" viewBox="0 0 20 19" fill="none" xmlns="http://www.w3.org/2000/svg">
<g clip-path="url(#clip0_668_2236)">
<path d="M10 3.16666C5.83337 3.16666 2.27504 5.62874 0.833374 9.10416C2.27504 12.5796 5.83337 15.0417 10 15.0417C14.1667 15.0417 17.725 12.5796 19.1667 9.10416C17.725 5.62874 14.1667 3.16666 10 3.16666ZM10 13.0625C7.70004 13.0625 5.83337 11.2892 5.83337 9.10416C5.83337 6.91916 7.70004 5.14582 10 5.14582C12.3 5.14582 14.1667 6.91916 14.1667 9.10416C14.1667 11.2892 12.3 13.0625 10 13.0625ZM10 6.72916C8.61671 6.72916 7.50004 7.78999 7.50004 9.10416C7.50004 10.4183 8.61671 11.4792 10 11.4792C11.3834 11.4792 12.5 10.4183 12.5 9.10416C12.5 7.78999 11.3834 6.72916 10 6.72916Z" fill="url(#paint0_linear_668_2236)"/>
</g>
<defs>
<linearGradient id="paint0_linear_668_2236" x1="10" y1="3.16666" x2="10" y2="15.0417" gradientUnits="userSpaceOnUse">
<stop stop-color="#2F8CD8"/>
<stop offset="1" stop-color="#18C776"/>
</linearGradient>
<clipPath id="clip0_668_2236">
<rect width="20" height="19" fill="white"/>
</clipPath>
</defs>
</svg>
